<mxfile host="app.diagrams.net" modified="2022-12-21T05:21:43.482Z" agent="5.0 (Windows NT 10.0; Win64; x64) AppleWebKit/537.36 (KHTML, like Gecko) Chrome/108.0.0.0 Safari/537.36" version="20.7.4" etag="2tlqGxWA9eDHe4iYLzpe" type="github">
  <diagram id="PJuAKd-02b7Ny2W8kYr5" name="第 1 页">
    <mxGraphModel dx="1008" dy="618" grid="1" gridSize="10" guides="1" tooltips="1" connect="1" arrows="1" fold="1" page="1" pageScale="1" pageWidth="827" pageHeight="1169" math="1" shadow="0">
      <root>
        <mxCell id="0" />
        <mxCell id="1" parent="0" />
        <mxCell id="JPbsl4Qvrne1bevDVoKe-120" value="0" style="rounded=0;whiteSpace=wrap;html=1;fillColor=#dae8fc;strokeColor=#6c8ebf;" vertex="1" parent="1">
          <mxGeometry x="80" y="240" width="40" height="40" as="geometry" />
        </mxCell>
        <mxCell id="JPbsl4Qvrne1bevDVoKe-121" value="1" style="rounded=0;whiteSpace=wrap;html=1;fillColor=#f8cecc;strokeColor=#b85450;" vertex="1" parent="1">
          <mxGeometry x="120" y="240" width="40" height="40" as="geometry" />
        </mxCell>
        <mxCell id="JPbsl4Qvrne1bevDVoKe-122" value="2" style="rounded=0;whiteSpace=wrap;html=1;fillColor=#d5e8d4;strokeColor=#82b366;" vertex="1" parent="1">
          <mxGeometry x="160" y="240" width="40" height="40" as="geometry" />
        </mxCell>
        <mxCell id="JPbsl4Qvrne1bevDVoKe-123" value="3" style="rounded=0;whiteSpace=wrap;html=1;fillColor=#ffe6cc;strokeColor=#d79b00;" vertex="1" parent="1">
          <mxGeometry x="200" y="240" width="40" height="40" as="geometry" />
        </mxCell>
        <mxCell id="JPbsl4Qvrne1bevDVoKe-124" value="4" style="rounded=0;whiteSpace=wrap;html=1;fillColor=#dae8fc;strokeColor=#6c8ebf;" vertex="1" parent="1">
          <mxGeometry x="240" y="240" width="40" height="40" as="geometry" />
        </mxCell>
        <mxCell id="JPbsl4Qvrne1bevDVoKe-125" value="5" style="rounded=0;whiteSpace=wrap;html=1;fillColor=#f8cecc;strokeColor=#b85450;" vertex="1" parent="1">
          <mxGeometry x="280" y="240" width="40" height="40" as="geometry" />
        </mxCell>
        <mxCell id="JPbsl4Qvrne1bevDVoKe-126" value="6" style="rounded=0;whiteSpace=wrap;html=1;fillColor=#d5e8d4;strokeColor=#82b366;" vertex="1" parent="1">
          <mxGeometry x="320" y="240" width="40" height="40" as="geometry" />
        </mxCell>
        <mxCell id="JPbsl4Qvrne1bevDVoKe-127" value="7" style="rounded=0;whiteSpace=wrap;html=1;fillColor=#ffe6cc;strokeColor=#d79b00;" vertex="1" parent="1">
          <mxGeometry x="360" y="240" width="40" height="40" as="geometry" />
        </mxCell>
        <mxCell id="JPbsl4Qvrne1bevDVoKe-137" value="" style="shape=curlyBracket;whiteSpace=wrap;html=1;rounded=1;flipH=1;labelPosition=right;verticalLabelPosition=middle;align=left;verticalAlign=middle;direction=south;" vertex="1" parent="1">
          <mxGeometry x="80" y="220" width="320" height="20" as="geometry" />
        </mxCell>
        <mxCell id="JPbsl4Qvrne1bevDVoKe-138" value="0" style="rounded=0;whiteSpace=wrap;html=1;fillColor=#dae8fc;strokeColor=#6c8ebf;" vertex="1" parent="1">
          <mxGeometry x="80" y="280" width="40" height="40" as="geometry" />
        </mxCell>
        <mxCell id="JPbsl4Qvrne1bevDVoKe-139" value="1" style="rounded=0;whiteSpace=wrap;html=1;fillColor=#f8cecc;strokeColor=#b85450;" vertex="1" parent="1">
          <mxGeometry x="120" y="280" width="40" height="40" as="geometry" />
        </mxCell>
        <mxCell id="JPbsl4Qvrne1bevDVoKe-140" value="2" style="rounded=0;whiteSpace=wrap;html=1;fillColor=#d5e8d4;strokeColor=#82b366;" vertex="1" parent="1">
          <mxGeometry x="160" y="280" width="40" height="40" as="geometry" />
        </mxCell>
        <mxCell id="JPbsl4Qvrne1bevDVoKe-141" value="3" style="rounded=0;whiteSpace=wrap;html=1;fillColor=#ffe6cc;strokeColor=#d79b00;" vertex="1" parent="1">
          <mxGeometry x="200" y="280" width="40" height="40" as="geometry" />
        </mxCell>
        <mxCell id="JPbsl4Qvrne1bevDVoKe-142" value="4" style="rounded=0;whiteSpace=wrap;html=1;fillColor=#dae8fc;strokeColor=#6c8ebf;" vertex="1" parent="1">
          <mxGeometry x="240" y="280" width="40" height="40" as="geometry" />
        </mxCell>
        <mxCell id="JPbsl4Qvrne1bevDVoKe-143" value="5" style="rounded=0;whiteSpace=wrap;html=1;fillColor=#f8cecc;strokeColor=#b85450;" vertex="1" parent="1">
          <mxGeometry x="280" y="280" width="40" height="40" as="geometry" />
        </mxCell>
        <mxCell id="JPbsl4Qvrne1bevDVoKe-144" value="6" style="rounded=0;whiteSpace=wrap;html=1;fillColor=#d5e8d4;strokeColor=#82b366;" vertex="1" parent="1">
          <mxGeometry x="320" y="280" width="40" height="40" as="geometry" />
        </mxCell>
        <mxCell id="JPbsl4Qvrne1bevDVoKe-145" value="7" style="rounded=0;whiteSpace=wrap;html=1;fillColor=#ffe6cc;strokeColor=#d79b00;" vertex="1" parent="1">
          <mxGeometry x="360" y="280" width="40" height="40" as="geometry" />
        </mxCell>
        <mxCell id="JPbsl4Qvrne1bevDVoKe-146" value="0" style="rounded=0;whiteSpace=wrap;html=1;fillColor=#dae8fc;strokeColor=#6c8ebf;" vertex="1" parent="1">
          <mxGeometry x="80" y="320" width="40" height="40" as="geometry" />
        </mxCell>
        <mxCell id="JPbsl4Qvrne1bevDVoKe-147" value="1" style="rounded=0;whiteSpace=wrap;html=1;fillColor=#f8cecc;strokeColor=#b85450;" vertex="1" parent="1">
          <mxGeometry x="120" y="320" width="40" height="40" as="geometry" />
        </mxCell>
        <mxCell id="JPbsl4Qvrne1bevDVoKe-148" value="2" style="rounded=0;whiteSpace=wrap;html=1;fillColor=#d5e8d4;strokeColor=#82b366;" vertex="1" parent="1">
          <mxGeometry x="160" y="320" width="40" height="40" as="geometry" />
        </mxCell>
        <mxCell id="JPbsl4Qvrne1bevDVoKe-149" value="3" style="rounded=0;whiteSpace=wrap;html=1;fillColor=#ffe6cc;strokeColor=#d79b00;" vertex="1" parent="1">
          <mxGeometry x="200" y="320" width="40" height="40" as="geometry" />
        </mxCell>
        <mxCell id="JPbsl4Qvrne1bevDVoKe-150" value="4" style="rounded=0;whiteSpace=wrap;html=1;fillColor=#dae8fc;strokeColor=#6c8ebf;" vertex="1" parent="1">
          <mxGeometry x="240" y="320" width="40" height="40" as="geometry" />
        </mxCell>
        <mxCell id="JPbsl4Qvrne1bevDVoKe-151" value="5" style="rounded=0;whiteSpace=wrap;html=1;fillColor=#f8cecc;strokeColor=#b85450;" vertex="1" parent="1">
          <mxGeometry x="280" y="320" width="40" height="40" as="geometry" />
        </mxCell>
        <mxCell id="JPbsl4Qvrne1bevDVoKe-152" value="6" style="rounded=0;whiteSpace=wrap;html=1;fillColor=#d5e8d4;strokeColor=#82b366;" vertex="1" parent="1">
          <mxGeometry x="320" y="320" width="40" height="40" as="geometry" />
        </mxCell>
        <mxCell id="JPbsl4Qvrne1bevDVoKe-153" value="7" style="rounded=0;whiteSpace=wrap;html=1;fillColor=#ffe6cc;strokeColor=#d79b00;" vertex="1" parent="1">
          <mxGeometry x="360" y="320" width="40" height="40" as="geometry" />
        </mxCell>
        <mxCell id="JPbsl4Qvrne1bevDVoKe-154" value="0" style="rounded=0;whiteSpace=wrap;html=1;fillColor=#dae8fc;strokeColor=#6c8ebf;" vertex="1" parent="1">
          <mxGeometry x="80" y="360" width="40" height="40" as="geometry" />
        </mxCell>
        <mxCell id="JPbsl4Qvrne1bevDVoKe-155" value="1" style="rounded=0;whiteSpace=wrap;html=1;fillColor=#f8cecc;strokeColor=#b85450;" vertex="1" parent="1">
          <mxGeometry x="120" y="360" width="40" height="40" as="geometry" />
        </mxCell>
        <mxCell id="JPbsl4Qvrne1bevDVoKe-156" value="2" style="rounded=0;whiteSpace=wrap;html=1;fillColor=#d5e8d4;strokeColor=#82b366;" vertex="1" parent="1">
          <mxGeometry x="160" y="360" width="40" height="40" as="geometry" />
        </mxCell>
        <mxCell id="JPbsl4Qvrne1bevDVoKe-157" value="3" style="rounded=0;whiteSpace=wrap;html=1;fillColor=#ffe6cc;strokeColor=#d79b00;" vertex="1" parent="1">
          <mxGeometry x="200" y="360" width="40" height="40" as="geometry" />
        </mxCell>
        <mxCell id="JPbsl4Qvrne1bevDVoKe-158" value="4" style="rounded=0;whiteSpace=wrap;html=1;fillColor=#dae8fc;strokeColor=#6c8ebf;" vertex="1" parent="1">
          <mxGeometry x="240" y="360" width="40" height="40" as="geometry" />
        </mxCell>
        <mxCell id="JPbsl4Qvrne1bevDVoKe-159" value="5" style="rounded=0;whiteSpace=wrap;html=1;fillColor=#f8cecc;strokeColor=#b85450;" vertex="1" parent="1">
          <mxGeometry x="280" y="360" width="40" height="40" as="geometry" />
        </mxCell>
        <mxCell id="JPbsl4Qvrne1bevDVoKe-160" value="6" style="rounded=0;whiteSpace=wrap;html=1;fillColor=#d5e8d4;strokeColor=#82b366;" vertex="1" parent="1">
          <mxGeometry x="320" y="360" width="40" height="40" as="geometry" />
        </mxCell>
        <mxCell id="JPbsl4Qvrne1bevDVoKe-161" value="7" style="rounded=0;whiteSpace=wrap;html=1;fillColor=#ffe6cc;strokeColor=#d79b00;" vertex="1" parent="1">
          <mxGeometry x="360" y="360" width="40" height="40" as="geometry" />
        </mxCell>
        <mxCell id="JPbsl4Qvrne1bevDVoKe-162" value="8" style="rounded=0;whiteSpace=wrap;html=1;fillColor=#dae8fc;strokeColor=#6c8ebf;" vertex="1" parent="1">
          <mxGeometry x="80" y="400" width="40" height="40" as="geometry" />
        </mxCell>
        <mxCell id="JPbsl4Qvrne1bevDVoKe-163" value="9" style="rounded=0;whiteSpace=wrap;html=1;fillColor=#f8cecc;strokeColor=#b85450;" vertex="1" parent="1">
          <mxGeometry x="120" y="400" width="40" height="40" as="geometry" />
        </mxCell>
        <mxCell id="JPbsl4Qvrne1bevDVoKe-164" value="10" style="rounded=0;whiteSpace=wrap;html=1;fillColor=#d5e8d4;strokeColor=#82b366;" vertex="1" parent="1">
          <mxGeometry x="160" y="400" width="40" height="40" as="geometry" />
        </mxCell>
        <mxCell id="JPbsl4Qvrne1bevDVoKe-165" value="11" style="rounded=0;whiteSpace=wrap;html=1;fillColor=#ffe6cc;strokeColor=#d79b00;" vertex="1" parent="1">
          <mxGeometry x="200" y="400" width="40" height="40" as="geometry" />
        </mxCell>
        <mxCell id="JPbsl4Qvrne1bevDVoKe-166" value="12" style="rounded=0;whiteSpace=wrap;html=1;fillColor=#dae8fc;strokeColor=#6c8ebf;" vertex="1" parent="1">
          <mxGeometry x="240" y="400" width="40" height="40" as="geometry" />
        </mxCell>
        <mxCell id="JPbsl4Qvrne1bevDVoKe-167" value="13" style="rounded=0;whiteSpace=wrap;html=1;fillColor=#f8cecc;strokeColor=#b85450;" vertex="1" parent="1">
          <mxGeometry x="280" y="400" width="40" height="40" as="geometry" />
        </mxCell>
        <mxCell id="JPbsl4Qvrne1bevDVoKe-168" value="14" style="rounded=0;whiteSpace=wrap;html=1;fillColor=#d5e8d4;strokeColor=#82b366;" vertex="1" parent="1">
          <mxGeometry x="320" y="400" width="40" height="40" as="geometry" />
        </mxCell>
        <mxCell id="JPbsl4Qvrne1bevDVoKe-169" value="15" style="rounded=0;whiteSpace=wrap;html=1;fillColor=#ffe6cc;strokeColor=#d79b00;" vertex="1" parent="1">
          <mxGeometry x="360" y="400" width="40" height="40" as="geometry" />
        </mxCell>
        <mxCell id="JPbsl4Qvrne1bevDVoKe-194" value="8" style="rounded=0;whiteSpace=wrap;html=1;fillColor=#dae8fc;strokeColor=#6c8ebf;" vertex="1" parent="1">
          <mxGeometry x="80" y="440" width="40" height="40" as="geometry" />
        </mxCell>
        <mxCell id="JPbsl4Qvrne1bevDVoKe-195" value="9" style="rounded=0;whiteSpace=wrap;html=1;fillColor=#f8cecc;strokeColor=#b85450;" vertex="1" parent="1">
          <mxGeometry x="120" y="440" width="40" height="40" as="geometry" />
        </mxCell>
        <mxCell id="JPbsl4Qvrne1bevDVoKe-196" value="10" style="rounded=0;whiteSpace=wrap;html=1;fillColor=#d5e8d4;strokeColor=#82b366;" vertex="1" parent="1">
          <mxGeometry x="160" y="440" width="40" height="40" as="geometry" />
        </mxCell>
        <mxCell id="JPbsl4Qvrne1bevDVoKe-197" value="11" style="rounded=0;whiteSpace=wrap;html=1;fillColor=#ffe6cc;strokeColor=#d79b00;" vertex="1" parent="1">
          <mxGeometry x="200" y="440" width="40" height="40" as="geometry" />
        </mxCell>
        <mxCell id="JPbsl4Qvrne1bevDVoKe-198" value="12" style="rounded=0;whiteSpace=wrap;html=1;fillColor=#dae8fc;strokeColor=#6c8ebf;" vertex="1" parent="1">
          <mxGeometry x="240" y="440" width="40" height="40" as="geometry" />
        </mxCell>
        <mxCell id="JPbsl4Qvrne1bevDVoKe-199" value="13" style="rounded=0;whiteSpace=wrap;html=1;fillColor=#f8cecc;strokeColor=#b85450;" vertex="1" parent="1">
          <mxGeometry x="280" y="440" width="40" height="40" as="geometry" />
        </mxCell>
        <mxCell id="JPbsl4Qvrne1bevDVoKe-200" value="14" style="rounded=0;whiteSpace=wrap;html=1;fillColor=#d5e8d4;strokeColor=#82b366;" vertex="1" parent="1">
          <mxGeometry x="320" y="440" width="40" height="40" as="geometry" />
        </mxCell>
        <mxCell id="JPbsl4Qvrne1bevDVoKe-201" value="15" style="rounded=0;whiteSpace=wrap;html=1;fillColor=#ffe6cc;strokeColor=#d79b00;" vertex="1" parent="1">
          <mxGeometry x="360" y="440" width="40" height="40" as="geometry" />
        </mxCell>
        <mxCell id="JPbsl4Qvrne1bevDVoKe-202" value="8" style="rounded=0;whiteSpace=wrap;html=1;fillColor=#dae8fc;strokeColor=#6c8ebf;" vertex="1" parent="1">
          <mxGeometry x="80" y="480" width="40" height="40" as="geometry" />
        </mxCell>
        <mxCell id="JPbsl4Qvrne1bevDVoKe-203" value="9" style="rounded=0;whiteSpace=wrap;html=1;fillColor=#f8cecc;strokeColor=#b85450;" vertex="1" parent="1">
          <mxGeometry x="120" y="480" width="40" height="40" as="geometry" />
        </mxCell>
        <mxCell id="JPbsl4Qvrne1bevDVoKe-204" value="10" style="rounded=0;whiteSpace=wrap;html=1;fillColor=#d5e8d4;strokeColor=#82b366;" vertex="1" parent="1">
          <mxGeometry x="160" y="480" width="40" height="40" as="geometry" />
        </mxCell>
        <mxCell id="JPbsl4Qvrne1bevDVoKe-205" value="11" style="rounded=0;whiteSpace=wrap;html=1;fillColor=#ffe6cc;strokeColor=#d79b00;" vertex="1" parent="1">
          <mxGeometry x="200" y="480" width="40" height="40" as="geometry" />
        </mxCell>
        <mxCell id="JPbsl4Qvrne1bevDVoKe-206" value="12" style="rounded=0;whiteSpace=wrap;html=1;fillColor=#dae8fc;strokeColor=#6c8ebf;" vertex="1" parent="1">
          <mxGeometry x="240" y="480" width="40" height="40" as="geometry" />
        </mxCell>
        <mxCell id="JPbsl4Qvrne1bevDVoKe-207" value="13" style="rounded=0;whiteSpace=wrap;html=1;fillColor=#f8cecc;strokeColor=#b85450;" vertex="1" parent="1">
          <mxGeometry x="280" y="480" width="40" height="40" as="geometry" />
        </mxCell>
        <mxCell id="JPbsl4Qvrne1bevDVoKe-208" value="14" style="rounded=0;whiteSpace=wrap;html=1;fillColor=#d5e8d4;strokeColor=#82b366;" vertex="1" parent="1">
          <mxGeometry x="320" y="480" width="40" height="40" as="geometry" />
        </mxCell>
        <mxCell id="JPbsl4Qvrne1bevDVoKe-209" value="15" style="rounded=0;whiteSpace=wrap;html=1;fillColor=#ffe6cc;strokeColor=#d79b00;" vertex="1" parent="1">
          <mxGeometry x="360" y="480" width="40" height="40" as="geometry" />
        </mxCell>
        <mxCell id="JPbsl4Qvrne1bevDVoKe-210" value="8" style="rounded=0;whiteSpace=wrap;html=1;fillColor=#dae8fc;strokeColor=#6c8ebf;" vertex="1" parent="1">
          <mxGeometry x="80" y="520" width="40" height="40" as="geometry" />
        </mxCell>
        <mxCell id="JPbsl4Qvrne1bevDVoKe-211" value="9" style="rounded=0;whiteSpace=wrap;html=1;fillColor=#f8cecc;strokeColor=#b85450;" vertex="1" parent="1">
          <mxGeometry x="120" y="520" width="40" height="40" as="geometry" />
        </mxCell>
        <mxCell id="JPbsl4Qvrne1bevDVoKe-212" value="10" style="rounded=0;whiteSpace=wrap;html=1;fillColor=#d5e8d4;strokeColor=#82b366;" vertex="1" parent="1">
          <mxGeometry x="160" y="520" width="40" height="40" as="geometry" />
        </mxCell>
        <mxCell id="JPbsl4Qvrne1bevDVoKe-213" value="11" style="rounded=0;whiteSpace=wrap;html=1;fillColor=#ffe6cc;strokeColor=#d79b00;direction=south;" vertex="1" parent="1">
          <mxGeometry x="200" y="520" width="40" height="40" as="geometry" />
        </mxCell>
        <mxCell id="JPbsl4Qvrne1bevDVoKe-214" value="12" style="rounded=0;whiteSpace=wrap;html=1;fillColor=#dae8fc;strokeColor=#6c8ebf;" vertex="1" parent="1">
          <mxGeometry x="240" y="520" width="40" height="40" as="geometry" />
        </mxCell>
        <mxCell id="JPbsl4Qvrne1bevDVoKe-215" value="13" style="rounded=0;whiteSpace=wrap;html=1;fillColor=#f8cecc;strokeColor=#b85450;" vertex="1" parent="1">
          <mxGeometry x="280" y="520" width="40" height="40" as="geometry" />
        </mxCell>
        <mxCell id="JPbsl4Qvrne1bevDVoKe-216" value="14" style="rounded=0;whiteSpace=wrap;html=1;fillColor=#d5e8d4;strokeColor=#82b366;" vertex="1" parent="1">
          <mxGeometry x="320" y="520" width="40" height="40" as="geometry" />
        </mxCell>
        <mxCell id="JPbsl4Qvrne1bevDVoKe-217" value="15" style="rounded=0;whiteSpace=wrap;html=1;fillColor=#ffe6cc;strokeColor=#d79b00;" vertex="1" parent="1">
          <mxGeometry x="360" y="520" width="40" height="40" as="geometry" />
        </mxCell>
        <mxCell id="JPbsl4Qvrne1bevDVoKe-218" value="16 complex number" style="text;html=1;align=center;verticalAlign=middle;resizable=0;points=[];autosize=1;strokeColor=none;fillColor=none;" vertex="1" parent="1">
          <mxGeometry x="175" y="185" width="130" height="30" as="geometry" />
        </mxCell>
        <mxCell id="JPbsl4Qvrne1bevDVoKe-219" value="" style="rounded=0;whiteSpace=wrap;html=1;" vertex="1" parent="1">
          <mxGeometry x="400" y="240" width="400" height="40" as="geometry" />
        </mxCell>
        <mxCell id="JPbsl4Qvrne1bevDVoKe-222" value="" style="shape=curlyBracket;whiteSpace=wrap;html=1;rounded=1;flipH=1;labelPosition=right;verticalLabelPosition=middle;align=left;verticalAlign=middle;direction=south;" vertex="1" parent="1">
          <mxGeometry x="80" y="170" width="720" height="20" as="geometry" />
        </mxCell>
        <mxCell id="JPbsl4Qvrne1bevDVoKe-223" value="64 complex number" style="text;html=1;align=center;verticalAlign=middle;resizable=0;points=[];autosize=1;strokeColor=none;fillColor=none;" vertex="1" parent="1">
          <mxGeometry x="375" y="130" width="130" height="30" as="geometry" />
        </mxCell>
        <mxCell id="JPbsl4Qvrne1bevDVoKe-224" value="" style="rounded=0;whiteSpace=wrap;html=1;fillColor=#dae8fc;strokeColor=#6c8ebf;" vertex="1" parent="1">
          <mxGeometry x="640" y="400" width="40" height="40" as="geometry" />
        </mxCell>
        <mxCell id="JPbsl4Qvrne1bevDVoKe-225" value="" style="rounded=0;whiteSpace=wrap;html=1;fillColor=#f8cecc;strokeColor=#b85450;" vertex="1" parent="1">
          <mxGeometry x="640" y="440" width="40" height="40" as="geometry" />
        </mxCell>
        <mxCell id="JPbsl4Qvrne1bevDVoKe-226" value="" style="rounded=0;whiteSpace=wrap;html=1;fillColor=#d5e8d4;strokeColor=#82b366;" vertex="1" parent="1">
          <mxGeometry x="640" y="480" width="40" height="40" as="geometry" />
        </mxCell>
        <mxCell id="JPbsl4Qvrne1bevDVoKe-227" value="" style="rounded=0;whiteSpace=wrap;html=1;fillColor=#ffe6cc;strokeColor=#d79b00;" vertex="1" parent="1">
          <mxGeometry x="640" y="520" width="40" height="40" as="geometry" />
        </mxCell>
        <mxCell id="JPbsl4Qvrne1bevDVoKe-228" value="bank0" style="text;html=1;align=center;verticalAlign=middle;resizable=0;points=[];autosize=1;strokeColor=none;fillColor=none;" vertex="1" parent="1">
          <mxGeometry x="680" y="405" width="60" height="30" as="geometry" />
        </mxCell>
        <mxCell id="JPbsl4Qvrne1bevDVoKe-229" value="bank1" style="text;html=1;align=center;verticalAlign=middle;resizable=0;points=[];autosize=1;strokeColor=none;fillColor=none;" vertex="1" parent="1">
          <mxGeometry x="680" y="445" width="60" height="30" as="geometry" />
        </mxCell>
        <mxCell id="JPbsl4Qvrne1bevDVoKe-230" value="bank2" style="text;html=1;align=center;verticalAlign=middle;resizable=0;points=[];autosize=1;strokeColor=none;fillColor=none;" vertex="1" parent="1">
          <mxGeometry x="680" y="485" width="60" height="30" as="geometry" />
        </mxCell>
        <mxCell id="JPbsl4Qvrne1bevDVoKe-231" value="bank3" style="text;html=1;align=center;verticalAlign=middle;resizable=0;points=[];autosize=1;strokeColor=none;fillColor=none;" vertex="1" parent="1">
          <mxGeometry x="680" y="525" width="60" height="30" as="geometry" />
        </mxCell>
        <mxCell id="JPbsl4Qvrne1bevDVoKe-232" style="edgeStyle=orthogonalEdgeStyle;rounded=0;orthogonalLoop=1;jettySize=auto;html=1;exitX=1;exitY=0.75;exitDx=0;exitDy=0;entryX=0.75;entryY=0.75;entryDx=0;entryDy=0;entryPerimeter=0;" edge="1" parent="1" source="JPbsl4Qvrne1bevDVoKe-143" target="JPbsl4Qvrne1bevDVoKe-143">
          <mxGeometry relative="1" as="geometry" />
        </mxCell>
        <mxCell id="JPbsl4Qvrne1bevDVoKe-233" value="" style="shape=curlyBracket;whiteSpace=wrap;html=1;rounded=1;labelPosition=left;verticalLabelPosition=middle;align=right;verticalAlign=middle;" vertex="1" parent="1">
          <mxGeometry x="40" y="240" width="20" height="320" as="geometry" />
        </mxCell>
        <mxCell id="JPbsl4Qvrne1bevDVoKe-366" value="0" style="rounded=0;whiteSpace=wrap;html=1;fillColor=#dae8fc;strokeColor=#6c8ebf;" vertex="1" parent="1">
          <mxGeometry x="450" y="660" width="40" height="40" as="geometry" />
        </mxCell>
        <mxCell id="JPbsl4Qvrne1bevDVoKe-367" value="1" style="rounded=0;whiteSpace=wrap;html=1;fillColor=#f8cecc;strokeColor=#b85450;" vertex="1" parent="1">
          <mxGeometry x="490" y="660" width="40" height="40" as="geometry" />
        </mxCell>
        <mxCell id="JPbsl4Qvrne1bevDVoKe-368" value="2" style="rounded=0;whiteSpace=wrap;html=1;fillColor=#d5e8d4;strokeColor=#82b366;" vertex="1" parent="1">
          <mxGeometry x="530" y="660" width="40" height="40" as="geometry" />
        </mxCell>
        <mxCell id="JPbsl4Qvrne1bevDVoKe-369" value="3" style="rounded=0;whiteSpace=wrap;html=1;fillColor=#ffe6cc;strokeColor=#d79b00;" vertex="1" parent="1">
          <mxGeometry x="570" y="660" width="40" height="40" as="geometry" />
        </mxCell>
        <mxCell id="JPbsl4Qvrne1bevDVoKe-370" value="4" style="rounded=0;whiteSpace=wrap;html=1;fillColor=#dae8fc;strokeColor=#6c8ebf;" vertex="1" parent="1">
          <mxGeometry x="610" y="660" width="40" height="40" as="geometry" />
        </mxCell>
        <mxCell id="JPbsl4Qvrne1bevDVoKe-371" value="5" style="rounded=0;whiteSpace=wrap;html=1;fillColor=#f8cecc;strokeColor=#b85450;" vertex="1" parent="1">
          <mxGeometry x="650" y="660" width="40" height="40" as="geometry" />
        </mxCell>
        <mxCell id="JPbsl4Qvrne1bevDVoKe-372" value="6" style="rounded=0;whiteSpace=wrap;html=1;fillColor=#d5e8d4;strokeColor=#82b366;" vertex="1" parent="1">
          <mxGeometry x="690" y="660" width="40" height="40" as="geometry" />
        </mxCell>
        <mxCell id="JPbsl4Qvrne1bevDVoKe-373" value="7" style="rounded=0;whiteSpace=wrap;html=1;fillColor=#ffe6cc;strokeColor=#d79b00;" vertex="1" parent="1">
          <mxGeometry x="730" y="660" width="40" height="40" as="geometry" />
        </mxCell>
        <mxCell id="JPbsl4Qvrne1bevDVoKe-375" value="1" style="rounded=0;whiteSpace=wrap;html=1;fillColor=#dae8fc;strokeColor=#6c8ebf;" vertex="1" parent="1">
          <mxGeometry x="450" y="700" width="40" height="40" as="geometry" />
        </mxCell>
        <mxCell id="JPbsl4Qvrne1bevDVoKe-376" value="1" style="rounded=0;whiteSpace=wrap;html=1;fillColor=#f8cecc;strokeColor=#b85450;" vertex="1" parent="1">
          <mxGeometry x="490" y="700" width="40" height="40" as="geometry" />
        </mxCell>
        <mxCell id="JPbsl4Qvrne1bevDVoKe-377" value="2" style="rounded=0;whiteSpace=wrap;html=1;fillColor=#d5e8d4;strokeColor=#82b366;" vertex="1" parent="1">
          <mxGeometry x="530" y="700" width="40" height="40" as="geometry" />
        </mxCell>
        <mxCell id="JPbsl4Qvrne1bevDVoKe-378" value="3" style="rounded=0;whiteSpace=wrap;html=1;fillColor=#ffe6cc;strokeColor=#d79b00;" vertex="1" parent="1">
          <mxGeometry x="570" y="700" width="40" height="40" as="geometry" />
        </mxCell>
        <mxCell id="JPbsl4Qvrne1bevDVoKe-379" value="4" style="rounded=0;whiteSpace=wrap;html=1;fillColor=#dae8fc;strokeColor=#6c8ebf;" vertex="1" parent="1">
          <mxGeometry x="610" y="700" width="40" height="40" as="geometry" />
        </mxCell>
        <mxCell id="JPbsl4Qvrne1bevDVoKe-380" value="5" style="rounded=0;whiteSpace=wrap;html=1;fillColor=#f8cecc;strokeColor=#b85450;" vertex="1" parent="1">
          <mxGeometry x="650" y="700" width="40" height="40" as="geometry" />
        </mxCell>
        <mxCell id="JPbsl4Qvrne1bevDVoKe-381" value="6" style="rounded=0;whiteSpace=wrap;html=1;fillColor=#d5e8d4;strokeColor=#82b366;" vertex="1" parent="1">
          <mxGeometry x="690" y="700" width="40" height="40" as="geometry" />
        </mxCell>
        <mxCell id="JPbsl4Qvrne1bevDVoKe-382" value="7" style="rounded=0;whiteSpace=wrap;html=1;fillColor=#ffe6cc;strokeColor=#d79b00;" vertex="1" parent="1">
          <mxGeometry x="730" y="700" width="40" height="40" as="geometry" />
        </mxCell>
        <mxCell id="JPbsl4Qvrne1bevDVoKe-383" value="0" style="rounded=0;whiteSpace=wrap;html=1;fillColor=#dae8fc;strokeColor=#6c8ebf;" vertex="1" parent="1">
          <mxGeometry x="450" y="740" width="40" height="40" as="geometry" />
        </mxCell>
        <mxCell id="JPbsl4Qvrne1bevDVoKe-384" value="1" style="rounded=0;whiteSpace=wrap;html=1;fillColor=#f8cecc;strokeColor=#b85450;" vertex="1" parent="1">
          <mxGeometry x="490" y="740" width="40" height="40" as="geometry" />
        </mxCell>
        <mxCell id="JPbsl4Qvrne1bevDVoKe-385" value="2" style="rounded=0;whiteSpace=wrap;html=1;fillColor=#d5e8d4;strokeColor=#82b366;" vertex="1" parent="1">
          <mxGeometry x="530" y="740" width="40" height="40" as="geometry" />
        </mxCell>
        <mxCell id="JPbsl4Qvrne1bevDVoKe-386" value="3" style="rounded=0;whiteSpace=wrap;html=1;fillColor=#ffe6cc;strokeColor=#d79b00;" vertex="1" parent="1">
          <mxGeometry x="570" y="740" width="40" height="40" as="geometry" />
        </mxCell>
        <mxCell id="JPbsl4Qvrne1bevDVoKe-387" value="4" style="rounded=0;whiteSpace=wrap;html=1;fillColor=#dae8fc;strokeColor=#6c8ebf;" vertex="1" parent="1">
          <mxGeometry x="610" y="740" width="40" height="40" as="geometry" />
        </mxCell>
        <mxCell id="JPbsl4Qvrne1bevDVoKe-388" value="5" style="rounded=0;whiteSpace=wrap;html=1;fillColor=#f8cecc;strokeColor=#b85450;" vertex="1" parent="1">
          <mxGeometry x="650" y="740" width="40" height="40" as="geometry" />
        </mxCell>
        <mxCell id="JPbsl4Qvrne1bevDVoKe-389" value="6" style="rounded=0;whiteSpace=wrap;html=1;fillColor=#d5e8d4;strokeColor=#82b366;" vertex="1" parent="1">
          <mxGeometry x="690" y="740" width="40" height="40" as="geometry" />
        </mxCell>
        <mxCell id="JPbsl4Qvrne1bevDVoKe-390" value="7" style="rounded=0;whiteSpace=wrap;html=1;fillColor=#ffe6cc;strokeColor=#d79b00;" vertex="1" parent="1">
          <mxGeometry x="730" y="740" width="40" height="40" as="geometry" />
        </mxCell>
        <mxCell id="JPbsl4Qvrne1bevDVoKe-391" value="0" style="rounded=0;whiteSpace=wrap;html=1;fillColor=#dae8fc;strokeColor=#6c8ebf;" vertex="1" parent="1">
          <mxGeometry x="450" y="780" width="40" height="40" as="geometry" />
        </mxCell>
        <mxCell id="JPbsl4Qvrne1bevDVoKe-392" value="1" style="rounded=0;whiteSpace=wrap;html=1;fillColor=#f8cecc;strokeColor=#b85450;" vertex="1" parent="1">
          <mxGeometry x="490" y="780" width="40" height="40" as="geometry" />
        </mxCell>
        <mxCell id="JPbsl4Qvrne1bevDVoKe-393" value="2" style="rounded=0;whiteSpace=wrap;html=1;fillColor=#d5e8d4;strokeColor=#82b366;" vertex="1" parent="1">
          <mxGeometry x="530" y="780" width="40" height="40" as="geometry" />
        </mxCell>
        <mxCell id="JPbsl4Qvrne1bevDVoKe-394" value="3" style="rounded=0;whiteSpace=wrap;html=1;fillColor=#ffe6cc;strokeColor=#d79b00;" vertex="1" parent="1">
          <mxGeometry x="570" y="780" width="40" height="40" as="geometry" />
        </mxCell>
        <mxCell id="JPbsl4Qvrne1bevDVoKe-395" value="4" style="rounded=0;whiteSpace=wrap;html=1;fillColor=#dae8fc;strokeColor=#6c8ebf;" vertex="1" parent="1">
          <mxGeometry x="610" y="780" width="40" height="40" as="geometry" />
        </mxCell>
        <mxCell id="JPbsl4Qvrne1bevDVoKe-396" value="5" style="rounded=0;whiteSpace=wrap;html=1;fillColor=#f8cecc;strokeColor=#b85450;" vertex="1" parent="1">
          <mxGeometry x="650" y="780" width="40" height="40" as="geometry" />
        </mxCell>
        <mxCell id="JPbsl4Qvrne1bevDVoKe-397" value="6" style="rounded=0;whiteSpace=wrap;html=1;fillColor=#d5e8d4;strokeColor=#82b366;" vertex="1" parent="1">
          <mxGeometry x="690" y="780" width="40" height="40" as="geometry" />
        </mxCell>
        <mxCell id="JPbsl4Qvrne1bevDVoKe-398" value="7" style="rounded=0;whiteSpace=wrap;html=1;fillColor=#ffe6cc;strokeColor=#d79b00;" vertex="1" parent="1">
          <mxGeometry x="730" y="780" width="40" height="40" as="geometry" />
        </mxCell>
        <mxCell id="JPbsl4Qvrne1bevDVoKe-399" value="0" style="rounded=0;whiteSpace=wrap;html=1;fillColor=#dae8fc;strokeColor=#6c8ebf;" vertex="1" parent="1">
          <mxGeometry x="450" y="820" width="40" height="40" as="geometry" />
        </mxCell>
        <mxCell id="JPbsl4Qvrne1bevDVoKe-400" value="9" style="rounded=0;whiteSpace=wrap;html=1;fillColor=#f8cecc;strokeColor=#b85450;" vertex="1" parent="1">
          <mxGeometry x="490" y="820" width="40" height="40" as="geometry" />
        </mxCell>
        <mxCell id="JPbsl4Qvrne1bevDVoKe-401" value="10" style="rounded=0;whiteSpace=wrap;html=1;fillColor=#d5e8d4;strokeColor=#82b366;" vertex="1" parent="1">
          <mxGeometry x="530" y="820" width="40" height="40" as="geometry" />
        </mxCell>
        <mxCell id="JPbsl4Qvrne1bevDVoKe-402" value="11" style="rounded=0;whiteSpace=wrap;html=1;fillColor=#ffe6cc;strokeColor=#d79b00;" vertex="1" parent="1">
          <mxGeometry x="570" y="820" width="40" height="40" as="geometry" />
        </mxCell>
        <mxCell id="JPbsl4Qvrne1bevDVoKe-403" value="12" style="rounded=0;whiteSpace=wrap;html=1;fillColor=#dae8fc;strokeColor=#6c8ebf;" vertex="1" parent="1">
          <mxGeometry x="610" y="820" width="40" height="40" as="geometry" />
        </mxCell>
        <mxCell id="JPbsl4Qvrne1bevDVoKe-404" value="13" style="rounded=0;whiteSpace=wrap;html=1;fillColor=#f8cecc;strokeColor=#b85450;" vertex="1" parent="1">
          <mxGeometry x="650" y="820" width="40" height="40" as="geometry" />
        </mxCell>
        <mxCell id="JPbsl4Qvrne1bevDVoKe-405" value="14" style="rounded=0;whiteSpace=wrap;html=1;fillColor=#d5e8d4;strokeColor=#82b366;" vertex="1" parent="1">
          <mxGeometry x="690" y="820" width="40" height="40" as="geometry" />
        </mxCell>
        <mxCell id="JPbsl4Qvrne1bevDVoKe-406" value="15" style="rounded=0;whiteSpace=wrap;html=1;fillColor=#ffe6cc;strokeColor=#d79b00;" vertex="1" parent="1">
          <mxGeometry x="730" y="820" width="40" height="40" as="geometry" />
        </mxCell>
        <mxCell id="JPbsl4Qvrne1bevDVoKe-407" value="0" style="rounded=0;whiteSpace=wrap;html=1;fillColor=#dae8fc;strokeColor=#6c8ebf;" vertex="1" parent="1">
          <mxGeometry x="450" y="860" width="40" height="40" as="geometry" />
        </mxCell>
        <mxCell id="JPbsl4Qvrne1bevDVoKe-408" value="9" style="rounded=0;whiteSpace=wrap;html=1;fillColor=#f8cecc;strokeColor=#b85450;" vertex="1" parent="1">
          <mxGeometry x="490" y="860" width="40" height="40" as="geometry" />
        </mxCell>
        <mxCell id="JPbsl4Qvrne1bevDVoKe-409" value="10" style="rounded=0;whiteSpace=wrap;html=1;fillColor=#d5e8d4;strokeColor=#82b366;" vertex="1" parent="1">
          <mxGeometry x="530" y="860" width="40" height="40" as="geometry" />
        </mxCell>
        <mxCell id="JPbsl4Qvrne1bevDVoKe-410" value="11" style="rounded=0;whiteSpace=wrap;html=1;fillColor=#ffe6cc;strokeColor=#d79b00;" vertex="1" parent="1">
          <mxGeometry x="570" y="860" width="40" height="40" as="geometry" />
        </mxCell>
        <mxCell id="JPbsl4Qvrne1bevDVoKe-411" value="12" style="rounded=0;whiteSpace=wrap;html=1;fillColor=#dae8fc;strokeColor=#6c8ebf;" vertex="1" parent="1">
          <mxGeometry x="610" y="860" width="40" height="40" as="geometry" />
        </mxCell>
        <mxCell id="JPbsl4Qvrne1bevDVoKe-412" value="13" style="rounded=0;whiteSpace=wrap;html=1;fillColor=#f8cecc;strokeColor=#b85450;" vertex="1" parent="1">
          <mxGeometry x="650" y="860" width="40" height="40" as="geometry" />
        </mxCell>
        <mxCell id="JPbsl4Qvrne1bevDVoKe-413" value="14" style="rounded=0;whiteSpace=wrap;html=1;fillColor=#d5e8d4;strokeColor=#82b366;" vertex="1" parent="1">
          <mxGeometry x="690" y="860" width="40" height="40" as="geometry" />
        </mxCell>
        <mxCell id="JPbsl4Qvrne1bevDVoKe-414" value="15" style="rounded=0;whiteSpace=wrap;html=1;fillColor=#ffe6cc;strokeColor=#d79b00;" vertex="1" parent="1">
          <mxGeometry x="730" y="860" width="40" height="40" as="geometry" />
        </mxCell>
        <mxCell id="JPbsl4Qvrne1bevDVoKe-415" value="0" style="rounded=0;whiteSpace=wrap;html=1;fillColor=#dae8fc;strokeColor=#6c8ebf;" vertex="1" parent="1">
          <mxGeometry x="450" y="900" width="40" height="40" as="geometry" />
        </mxCell>
        <mxCell id="JPbsl4Qvrne1bevDVoKe-416" value="9" style="rounded=0;whiteSpace=wrap;html=1;fillColor=#f8cecc;strokeColor=#b85450;" vertex="1" parent="1">
          <mxGeometry x="490" y="900" width="40" height="40" as="geometry" />
        </mxCell>
        <mxCell id="JPbsl4Qvrne1bevDVoKe-417" value="10" style="rounded=0;whiteSpace=wrap;html=1;fillColor=#d5e8d4;strokeColor=#82b366;" vertex="1" parent="1">
          <mxGeometry x="530" y="900" width="40" height="40" as="geometry" />
        </mxCell>
        <mxCell id="JPbsl4Qvrne1bevDVoKe-418" value="11" style="rounded=0;whiteSpace=wrap;html=1;fillColor=#ffe6cc;strokeColor=#d79b00;" vertex="1" parent="1">
          <mxGeometry x="570" y="900" width="40" height="40" as="geometry" />
        </mxCell>
        <mxCell id="JPbsl4Qvrne1bevDVoKe-419" value="12" style="rounded=0;whiteSpace=wrap;html=1;fillColor=#dae8fc;strokeColor=#6c8ebf;" vertex="1" parent="1">
          <mxGeometry x="610" y="900" width="40" height="40" as="geometry" />
        </mxCell>
        <mxCell id="JPbsl4Qvrne1bevDVoKe-420" value="13" style="rounded=0;whiteSpace=wrap;html=1;fillColor=#f8cecc;strokeColor=#b85450;" vertex="1" parent="1">
          <mxGeometry x="650" y="900" width="40" height="40" as="geometry" />
        </mxCell>
        <mxCell id="JPbsl4Qvrne1bevDVoKe-421" value="14" style="rounded=0;whiteSpace=wrap;html=1;fillColor=#d5e8d4;strokeColor=#82b366;" vertex="1" parent="1">
          <mxGeometry x="690" y="900" width="40" height="40" as="geometry" />
        </mxCell>
        <mxCell id="JPbsl4Qvrne1bevDVoKe-422" value="15" style="rounded=0;whiteSpace=wrap;html=1;fillColor=#ffe6cc;strokeColor=#d79b00;" vertex="1" parent="1">
          <mxGeometry x="730" y="900" width="40" height="40" as="geometry" />
        </mxCell>
        <mxCell id="JPbsl4Qvrne1bevDVoKe-423" value="0" style="rounded=0;whiteSpace=wrap;html=1;fillColor=#dae8fc;strokeColor=#6c8ebf;" vertex="1" parent="1">
          <mxGeometry x="450" y="940" width="40" height="40" as="geometry" />
        </mxCell>
        <mxCell id="JPbsl4Qvrne1bevDVoKe-424" value="9" style="rounded=0;whiteSpace=wrap;html=1;fillColor=#f8cecc;strokeColor=#b85450;" vertex="1" parent="1">
          <mxGeometry x="490" y="940" width="40" height="40" as="geometry" />
        </mxCell>
        <mxCell id="JPbsl4Qvrne1bevDVoKe-425" value="10" style="rounded=0;whiteSpace=wrap;html=1;fillColor=#d5e8d4;strokeColor=#82b366;" vertex="1" parent="1">
          <mxGeometry x="530" y="940" width="40" height="40" as="geometry" />
        </mxCell>
        <mxCell id="JPbsl4Qvrne1bevDVoKe-426" value="11" style="rounded=0;whiteSpace=wrap;html=1;fillColor=#ffe6cc;strokeColor=#d79b00;" vertex="1" parent="1">
          <mxGeometry x="570" y="940" width="40" height="40" as="geometry" />
        </mxCell>
        <mxCell id="JPbsl4Qvrne1bevDVoKe-427" value="12" style="rounded=0;whiteSpace=wrap;html=1;fillColor=#dae8fc;strokeColor=#6c8ebf;" vertex="1" parent="1">
          <mxGeometry x="610" y="940" width="40" height="40" as="geometry" />
        </mxCell>
        <mxCell id="JPbsl4Qvrne1bevDVoKe-428" value="13" style="rounded=0;whiteSpace=wrap;html=1;fillColor=#f8cecc;strokeColor=#b85450;" vertex="1" parent="1">
          <mxGeometry x="650" y="940" width="40" height="40" as="geometry" />
        </mxCell>
        <mxCell id="JPbsl4Qvrne1bevDVoKe-429" value="14" style="rounded=0;whiteSpace=wrap;html=1;fillColor=#d5e8d4;strokeColor=#82b366;" vertex="1" parent="1">
          <mxGeometry x="690" y="940" width="40" height="40" as="geometry" />
        </mxCell>
        <mxCell id="JPbsl4Qvrne1bevDVoKe-430" value="15" style="rounded=0;whiteSpace=wrap;html=1;fillColor=#ffe6cc;strokeColor=#d79b00;" vertex="1" parent="1">
          <mxGeometry x="730" y="940" width="40" height="40" as="geometry" />
        </mxCell>
        <mxCell id="JPbsl4Qvrne1bevDVoKe-431" style="edgeStyle=orthogonalEdgeStyle;rounded=0;orthogonalLoop=1;jettySize=auto;html=1;exitX=1;exitY=0.75;exitDx=0;exitDy=0;entryX=0.75;entryY=0.75;entryDx=0;entryDy=0;entryPerimeter=0;" edge="1" parent="1" source="JPbsl4Qvrne1bevDVoKe-380" target="JPbsl4Qvrne1bevDVoKe-380">
          <mxGeometry relative="1" as="geometry" />
        </mxCell>
        <mxCell id="JPbsl4Qvrne1bevDVoKe-432" value="" style="shape=ext;double=1;rounded=0;whiteSpace=wrap;html=1;" vertex="1" parent="1">
          <mxGeometry x="150" y="760" width="120" height="80" as="geometry" />
        </mxCell>
        <mxCell id="JPbsl4Qvrne1bevDVoKe-434" value="$$N_r * N_r$$" style="text;strokeColor=none;fillColor=none;html=1;fontSize=24;fontStyle=1;verticalAlign=middle;align=center;" vertex="1" parent="1">
          <mxGeometry x="160" y="710" width="100" height="40" as="geometry" />
        </mxCell>
        <mxCell id="JPbsl4Qvrne1bevDVoKe-435" value="$$N_r \times T_{block}$$" style="text;html=1;align=center;verticalAlign=middle;resizable=0;points=[];autosize=1;strokeColor=none;fillColor=none;" vertex="1" parent="1">
          <mxGeometry x="530" y="615" width="160" height="30" as="geometry" />
        </mxCell>
      </root>
    </mxGraphModel>
  </diagram>
</mxfile>
